<svg width="294" height="18" viewBox="0 0 294 18" fill="none" xmlns="http://www.w3.org/2000/svg">
<path d="M22.936 13V4.36H26.092C26.652 4.36 27.112 4.424 27.472 4.552C27.84 4.68 28.128 4.856 28.336 5.08C28.552 5.304 28.7 5.564 28.78 5.86C28.868 6.148 28.912 6.452 28.912 6.772C28.912 7.252 28.812 7.648 28.612 7.96C28.42 8.272 28.168 8.52 27.856 8.704C27.544 8.88 27.188 9.004 26.788 9.076C26.396 9.148 26 9.184 25.6 9.184H23.752V13H22.936ZM25.624 8.488C26.008 8.488 26.352 8.464 26.656 8.416C26.96 8.368 27.216 8.28 27.424 8.152C27.64 8.016 27.804 7.836 27.916 7.612C28.036 7.38 28.096 7.08 28.096 6.712C28.096 6.168 27.916 5.756 27.556 5.476C27.204 5.196 26.64 5.056 25.864 5.056H23.752V8.488H25.624ZM30.097 13V6.784H30.817V13H30.097ZM30.061 5.428V4.36H30.853V5.428H30.061ZM32.7572 13V4.36H33.4772V13H32.7572ZM35.2064 13V6.784H35.9264V13H35.2064ZM35.1704 5.428V4.36H35.9624V5.428H35.1704ZM37.7585 13V4.36H38.4785V7.648C38.7665 7.344 39.0625 7.096 39.3665 6.904C39.6785 6.712 40.0505 6.616 40.4825 6.616C40.8665 6.616 41.2225 6.684 41.5505 6.82C41.8785 6.948 42.1545 7.176 42.3785 7.504C42.5305 7.728 42.6185 7.96 42.6425 8.2C42.6745 8.432 42.6905 8.676 42.6905 8.932V13H41.9705V8.944C41.9705 8.384 41.8465 7.964 41.5985 7.684C41.3505 7.404 40.9385 7.264 40.3625 7.264C40.1385 7.264 39.9345 7.3 39.7505 7.372C39.5665 7.436 39.3985 7.524 39.2465 7.636C39.1025 7.748 38.9785 7.876 38.8745 8.02C38.7705 8.164 38.6905 8.316 38.6345 8.476C38.5625 8.676 38.5185 8.868 38.5025 9.052C38.4865 9.236 38.4785 9.436 38.4785 9.652V13H37.7585ZM47.8383 13V4.36H49.0863L51.9183 11.98H51.9423L54.7263 4.36H55.9623V13H55.1463V5.296H55.1223L52.2903 13H51.5223L48.6783 5.296H48.6543V13H47.8383ZM62.2624 9.46C62.2624 9.156 62.2184 8.872 62.1304 8.608C62.0504 8.336 61.9264 8.104 61.7584 7.912C61.5984 7.712 61.3944 7.556 61.1464 7.444C60.8984 7.324 60.6144 7.264 60.2944 7.264C59.9744 7.264 59.6904 7.324 59.4424 7.444C59.2024 7.564 58.9944 7.724 58.8184 7.924C58.6504 8.124 58.5144 8.356 58.4104 8.62C58.3064 8.884 58.2384 9.164 58.2064 9.46H62.2624ZM58.2064 10.06C58.2064 10.396 58.2504 10.716 58.3384 11.02C58.4264 11.316 58.5544 11.576 58.7224 11.8C58.8984 12.016 59.1184 12.192 59.3824 12.328C59.6464 12.456 59.9504 12.52 60.2944 12.52C60.7664 12.52 61.1704 12.396 61.5064 12.148C61.8424 11.9 62.0664 11.548 62.1784 11.092H62.9824C62.8944 11.388 62.7784 11.664 62.6344 11.92C62.4904 12.168 62.3104 12.388 62.0944 12.58C61.8784 12.764 61.6224 12.908 61.3264 13.012C61.0304 13.116 60.6864 13.168 60.2944 13.168C59.7984 13.168 59.3704 13.084 59.0104 12.916C58.6504 12.748 58.3544 12.52 58.1224 12.232C57.8904 11.936 57.7184 11.592 57.6064 11.2C57.4944 10.8 57.4384 10.372 57.4384 9.916C57.4384 9.46 57.5024 9.032 57.6304 8.632C57.7664 8.232 57.9544 7.884 58.1944 7.588C58.4424 7.284 58.7424 7.048 59.0944 6.88C59.4464 6.704 59.8464 6.616 60.2944 6.616C61.1504 6.616 61.8224 6.912 62.3104 7.504C62.7984 8.088 63.0384 8.94 63.0304 10.06H58.2064ZM66.6144 13.024C66.5264 13.04 66.4104 13.068 66.2664 13.108C66.1224 13.148 65.9624 13.168 65.7864 13.168C65.4264 13.168 65.1504 13.08 64.9584 12.904C64.7744 12.72 64.6824 12.396 64.6824 11.932V7.384H63.8064V6.784H64.6824V5.056H65.4024V6.784H66.5664V7.384H65.4024V11.644C65.4024 11.796 65.4064 11.928 65.4144 12.04C65.4224 12.152 65.4464 12.244 65.4864 12.316C65.5264 12.388 65.5864 12.44 65.6664 12.472C65.7544 12.504 65.8744 12.52 66.0264 12.52C66.1224 12.52 66.2184 12.512 66.3144 12.496C66.4184 12.48 66.5184 12.46 66.6144 12.436V13.024ZM70.2423 13.168C69.8423 13.16 69.4663 13.088 69.1143 12.952C68.7703 12.816 68.4663 12.612 68.2023 12.34C67.9463 12.068 67.7423 11.728 67.5903 11.32C67.4383 10.912 67.3623 10.436 67.3623 9.892C67.3623 9.436 67.4223 9.012 67.5423 8.62C67.6623 8.22 67.8423 7.872 68.0823 7.576C68.3223 7.28 68.6223 7.048 68.9823 6.88C69.3423 6.704 69.7623 6.616 70.2423 6.616C70.7303 6.616 71.1543 6.704 71.5143 6.88C71.8743 7.048 72.1743 7.28 72.4143 7.576C72.6543 7.864 72.8303 8.208 72.9423 8.608C73.0623 9.008 73.1223 9.436 73.1223 9.892C73.1223 10.388 73.0543 10.836 72.9183 11.236C72.7823 11.636 72.5863 11.98 72.3303 12.268C72.0823 12.556 71.7783 12.78 71.4183 12.94C71.0663 13.092 70.6743 13.168 70.2423 13.168ZM72.3543 9.892C72.3543 9.524 72.3143 9.18 72.2343 8.86C72.1543 8.54 72.0303 8.264 71.8623 8.032C71.6943 7.792 71.4783 7.604 71.2143 7.468C70.9503 7.332 70.6263 7.264 70.2423 7.264C69.8663 7.264 69.5423 7.34 69.2703 7.492C69.0063 7.636 68.7903 7.832 68.6223 8.08C68.4543 8.32 68.3303 8.6 68.2503 8.92C68.1703 9.232 68.1303 9.556 68.1303 9.892C68.1303 10.276 68.1743 10.632 68.2623 10.96C68.3583 11.28 68.4942 11.556 68.6702 11.788C68.8463 12.02 69.0663 12.2 69.3303 12.328C69.5943 12.456 69.8983 12.52 70.2423 12.52C70.6183 12.52 70.9383 12.448 71.2023 12.304C71.4743 12.152 71.6943 11.952 71.8623 11.704C72.0303 11.456 72.1543 11.176 72.2343 10.864C72.3143 10.552 72.3543 10.228 72.3543 9.892ZM79.2382 9.868C79.2382 9.516 79.1902 9.184 79.0942 8.872C78.9982 8.552 78.8582 8.276 78.6742 8.044C78.4982 7.804 78.2782 7.616 78.0142 7.48C77.7582 7.336 77.4662 7.264 77.1382 7.264C76.7622 7.264 76.4382 7.34 76.1662 7.492C75.8942 7.636 75.6702 7.836 75.4942 8.092C75.3182 8.348 75.1902 8.648 75.1102 8.992C75.0302 9.328 74.9982 9.692 75.0142 10.084C75.0142 10.476 75.0662 10.824 75.1702 11.128C75.2822 11.424 75.4342 11.676 75.6262 11.884C75.8182 12.092 76.0422 12.252 76.2982 12.364C76.5542 12.468 76.8342 12.52 77.1382 12.52C77.4742 12.52 77.7742 12.452 78.0382 12.316C78.3022 12.18 78.5222 11.996 78.6982 11.764C78.8742 11.524 79.0062 11.244 79.0942 10.924C79.1902 10.596 79.2382 10.244 79.2382 9.868ZM79.2382 4.36H79.9582V13H79.2382V11.908H79.2142C79.1102 12.116 78.9742 12.3 78.8062 12.46C78.6462 12.612 78.4662 12.74 78.2662 12.844C78.0742 12.948 77.8742 13.028 77.6662 13.084C77.4582 13.14 77.2542 13.168 77.0542 13.168C76.5502 13.168 76.1222 13.084 75.7702 12.916C75.4182 12.748 75.1262 12.52 74.8942 12.232C74.6702 11.936 74.5062 11.588 74.4022 11.188C74.2982 10.788 74.2462 10.36 74.2462 9.904C74.2462 9.472 74.3022 9.056 74.4142 8.656C74.5262 8.256 74.6942 7.908 74.9182 7.612C75.1502 7.308 75.4382 7.068 75.7822 6.892C76.1342 6.708 76.5462 6.616 77.0182 6.616C77.4582 6.616 77.8782 6.716 78.2782 6.916C78.6862 7.108 79.0062 7.396 79.2382 7.78V4.36ZM86.2742 9.46C86.2742 9.156 86.2302 8.872 86.1422 8.608C86.0622 8.336 85.9382 8.104 85.7702 7.912C85.6102 7.712 85.4062 7.556 85.1582 7.444C84.9102 7.324 84.6262 7.264 84.3062 7.264C83.9862 7.264 83.7022 7.324 83.4542 7.444C83.2142 7.564 83.0062 7.724 82.8302 7.924C82.6622 8.124 82.5262 8.356 82.4222 8.62C82.3182 8.884 82.2502 9.164 82.2182 9.46H86.2742ZM82.2182 10.06C82.2182 10.396 82.2622 10.716 82.3502 11.02C82.4382 11.316 82.5662 11.576 82.7342 11.8C82.9102 12.016 83.1302 12.192 83.3942 12.328C83.6582 12.456 83.9622 12.52 84.3062 12.52C84.7782 12.52 85.1822 12.396 85.5182 12.148C85.8542 11.9 86.0782 11.548 86.1902 11.092H86.9942C86.9062 11.388 86.7902 11.664 86.6462 11.92C86.5022 12.168 86.3222 12.388 86.1062 12.58C85.8902 12.764 85.6342 12.908 85.3382 13.012C85.0422 13.116 84.6982 13.168 84.3062 13.168C83.8102 13.168 83.3822 13.084 83.0222 12.916C82.6622 12.748 82.3662 12.52 82.1342 12.232C81.9022 11.936 81.7302 11.592 81.6182 11.2C81.5062 10.8 81.4502 10.372 81.4502 9.916C81.4502 9.46 81.5142 9.032 81.6422 8.632C81.7782 8.232 81.9662 7.884 82.2062 7.588C82.4542 7.284 82.7542 7.048 83.1062 6.88C83.4582 6.704 83.8582 6.616 84.3062 6.616C85.1622 6.616 85.8342 6.912 86.3222 7.504C86.8102 8.088 87.0502 8.94 87.0422 10.06H82.2182Z" fill="black"/>
<circle cx="7" cy="9" r="7" fill="#0D28A6"/>
<path d="M11 6L5.5 11.5L3 9" stroke="white" stroke-linecap="round" stroke-linejoin="round"/>
<rect x="100" y="8.5" width="28" height="1" fill="#0D28A6"/>
<path d="M163.788 12.304H165.864C166.312 12.304 166.7 12.284 167.028 12.244C167.364 12.204 167.64 12.124 167.856 12.004C168.072 11.876 168.232 11.7 168.336 11.476C168.448 11.244 168.504 10.94 168.504 10.564C168.504 10.204 168.444 9.916 168.324 9.7C168.204 9.476 168.032 9.304 167.808 9.184C167.584 9.064 167.316 8.984 167.004 8.944C166.692 8.896 166.344 8.872 165.96 8.872H163.788V12.304ZM163.788 8.176H165.852C166.276 8.176 166.632 8.14 166.92 8.068C167.208 7.996 167.44 7.892 167.616 7.756C167.792 7.612 167.916 7.44 167.988 7.24C168.068 7.032 168.108 6.796 168.108 6.532C168.108 6.26 168.064 6.032 167.976 5.848C167.888 5.656 167.748 5.504 167.556 5.392C167.364 5.272 167.112 5.188 166.8 5.14C166.496 5.084 166.12 5.056 165.672 5.056H163.788V8.176ZM162.972 13V4.36H166.092C166.596 4.36 167.028 4.412 167.388 4.516C167.748 4.62 168.04 4.768 168.264 4.96C168.496 5.152 168.664 5.384 168.768 5.656C168.872 5.92 168.924 6.212 168.924 6.532C168.924 6.836 168.884 7.1 168.804 7.324C168.724 7.54 168.62 7.724 168.492 7.876C168.364 8.02 168.216 8.136 168.048 8.224C167.888 8.304 167.72 8.36 167.544 8.392V8.416C168.144 8.504 168.588 8.74 168.876 9.124C169.172 9.508 169.32 9.988 169.32 10.564C169.32 11.012 169.248 11.392 169.104 11.704C168.968 12.016 168.776 12.268 168.528 12.46C168.28 12.652 167.98 12.792 167.628 12.88C167.284 12.96 166.908 13 166.5 13H162.972ZM174.936 9.736C174.632 9.864 174.324 9.948 174.012 9.988C173.7 10.028 173.388 10.06 173.076 10.084C172.524 10.124 172.092 10.248 171.78 10.456C171.476 10.664 171.324 10.98 171.324 11.404C171.324 11.596 171.36 11.764 171.432 11.908C171.512 12.044 171.612 12.16 171.732 12.256C171.86 12.344 172.004 12.412 172.164 12.46C172.332 12.5 172.5 12.52 172.668 12.52C172.956 12.52 173.236 12.484 173.508 12.412C173.78 12.34 174.02 12.232 174.228 12.088C174.444 11.936 174.616 11.748 174.744 11.524C174.872 11.292 174.936 11.02 174.936 10.708V9.736ZM173.724 9.376C173.86 9.36 174.02 9.336 174.204 9.304C174.396 9.272 174.552 9.228 174.672 9.172C174.792 9.116 174.864 9.024 174.888 8.896C174.92 8.76 174.936 8.636 174.936 8.524C174.936 8.156 174.816 7.856 174.576 7.624C174.344 7.384 173.948 7.264 173.388 7.264C173.14 7.264 172.912 7.288 172.704 7.336C172.496 7.376 172.312 7.452 172.152 7.564C172 7.668 171.872 7.812 171.768 7.996C171.672 8.172 171.608 8.396 171.576 8.668H170.844C170.868 8.3 170.952 7.988 171.096 7.732C171.24 7.468 171.424 7.256 171.648 7.096C171.88 6.928 172.144 6.808 172.44 6.736C172.744 6.656 173.064 6.616 173.4 6.616C173.712 6.616 174.004 6.652 174.276 6.724C174.556 6.788 174.796 6.896 174.996 7.048C175.204 7.192 175.364 7.388 175.476 7.636C175.596 7.884 175.656 8.188 175.656 8.548V11.932C175.656 12.212 175.704 12.392 175.8 12.472C175.904 12.544 176.108 12.524 176.412 12.412V12.976C176.356 12.992 176.272 13.016 176.16 13.048C176.056 13.08 175.952 13.096 175.848 13.096C175.736 13.096 175.628 13.084 175.524 13.06C175.404 13.044 175.308 13.008 175.236 12.952C175.164 12.888 175.104 12.816 175.056 12.736C175.016 12.648 174.988 12.556 174.972 12.46C174.956 12.356 174.948 12.248 174.948 12.136C174.644 12.472 174.296 12.728 173.904 12.904C173.512 13.08 173.088 13.168 172.632 13.168C172.36 13.168 172.096 13.132 171.84 13.06C171.592 12.988 171.372 12.876 171.18 12.724C170.988 12.572 170.836 12.388 170.724 12.172C170.612 11.948 170.556 11.684 170.556 11.38C170.556 10.324 171.28 9.7 172.728 9.508L173.724 9.376ZM177.488 14.692C177.584 14.708 177.68 14.724 177.776 14.74C177.88 14.756 177.984 14.764 178.088 14.764C178.288 14.764 178.452 14.7 178.58 14.572C178.708 14.444 178.812 14.288 178.892 14.104C178.98 13.928 179.052 13.74 179.108 13.54C179.164 13.348 179.228 13.184 179.3 13.048L176.888 6.784H177.692L179.684 12.124L181.676 6.784H182.456L180.14 12.916C179.996 13.308 179.856 13.66 179.72 13.972C179.592 14.284 179.452 14.548 179.3 14.764C179.156 14.988 178.992 15.156 178.808 15.268C178.632 15.388 178.42 15.448 178.172 15.448C178.044 15.448 177.92 15.44 177.8 15.424C177.688 15.408 177.584 15.388 177.488 15.364V14.692ZM187.604 9.736C187.3 9.864 186.992 9.948 186.68 9.988C186.368 10.028 186.056 10.06 185.744 10.084C185.192 10.124 184.76 10.248 184.448 10.456C184.144 10.664 183.992 10.98 183.992 11.404C183.992 11.596 184.028 11.764 184.1 11.908C184.18 12.044 184.28 12.16 184.4 12.256C184.528 12.344 184.672 12.412 184.832 12.46C185 12.5 185.168 12.52 185.336 12.52C185.624 12.52 185.904 12.484 186.176 12.412C186.448 12.34 186.688 12.232 186.896 12.088C187.112 11.936 187.284 11.748 187.412 11.524C187.54 11.292 187.604 11.02 187.604 10.708V9.736ZM186.392 9.376C186.528 9.36 186.688 9.336 186.872 9.304C187.064 9.272 187.22 9.228 187.34 9.172C187.46 9.116 187.532 9.024 187.556 8.896C187.588 8.76 187.604 8.636 187.604 8.524C187.604 8.156 187.484 7.856 187.244 7.624C187.012 7.384 186.616 7.264 186.056 7.264C185.808 7.264 185.58 7.288 185.372 7.336C185.164 7.376 184.98 7.452 184.82 7.564C184.668 7.668 184.54 7.812 184.436 7.996C184.34 8.172 184.276 8.396 184.244 8.668H183.512C183.536 8.3 183.62 7.988 183.764 7.732C183.908 7.468 184.092 7.256 184.316 7.096C184.548 6.928 184.812 6.808 185.108 6.736C185.412 6.656 185.732 6.616 186.068 6.616C186.38 6.616 186.672 6.652 186.944 6.724C187.224 6.788 187.464 6.896 187.664 7.048C187.872 7.192 188.032 7.388 188.144 7.636C188.264 7.884 188.324 8.188 188.324 8.548V11.932C188.324 12.212 188.372 12.392 188.468 12.472C188.572 12.544 188.776 12.524 189.08 12.412V12.976C189.024 12.992 188.94 13.016 188.828 13.048C188.724 13.08 188.62 13.096 188.516 13.096C188.404 13.096 188.296 13.084 188.192 13.06C188.072 13.044 187.976 13.008 187.904 12.952C187.832 12.888 187.772 12.816 187.724 12.736C187.684 12.648 187.656 12.556 187.64 12.46C187.624 12.356 187.616 12.248 187.616 12.136C187.312 12.472 186.964 12.728 186.572 12.904C186.18 13.08 185.756 13.168 185.3 13.168C185.028 13.168 184.764 13.132 184.508 13.06C184.26 12.988 184.04 12.876 183.848 12.724C183.656 12.572 183.504 12.388 183.392 12.172C183.28 11.948 183.224 11.684 183.224 11.38C183.224 10.324 183.948 9.7 185.396 9.508L186.392 9.376ZM190.96 13H190.24V6.784H190.96V7.948H190.984C191.184 7.452 191.44 7.108 191.752 6.916C192.072 6.716 192.492 6.616 193.012 6.616V7.396C192.604 7.388 192.268 7.452 192.004 7.588C191.74 7.724 191.528 7.908 191.368 8.14C191.216 8.372 191.108 8.648 191.044 8.968C190.988 9.28 190.96 9.608 190.96 9.952V13Z" fill="black"/>
<circle cx="147" cy="9" r="7" fill="#0D28A6"/>
<path d="M151 6L145.5 11.5L143 9" stroke="white" stroke-linecap="round" stroke-linejoin="round"/>
<rect x="206" y="8.5" width="28" height="1" fill="#0D28A6"/>
<path d="M268.192 4.36H274.48V5.056H271.744V13H270.928V5.056H268.192V4.36ZM275.429 13V6.784H276.149V13H275.429ZM275.393 5.428V4.36H276.185V5.428H275.393ZM277.933 13V4.36H278.653V9.736L281.701 6.784H282.685L280.357 9.028L282.961 13H282.157L279.829 9.532L278.653 10.648V13H277.933ZM288.481 9.46C288.481 9.156 288.437 8.872 288.349 8.608C288.269 8.336 288.145 8.104 287.977 7.912C287.817 7.712 287.613 7.556 287.365 7.444C287.117 7.324 286.833 7.264 286.513 7.264C286.193 7.264 285.909 7.324 285.661 7.444C285.421 7.564 285.213 7.724 285.037 7.924C284.869 8.124 284.733 8.356 284.629 8.62C284.525 8.884 284.457 9.164 284.425 9.46H288.481ZM284.425 10.06C284.425 10.396 284.469 10.716 284.557 11.02C284.645 11.316 284.773 11.576 284.941 11.8C285.117 12.016 285.337 12.192 285.601 12.328C285.865 12.456 286.169 12.52 286.513 12.52C286.985 12.52 287.389 12.396 287.725 12.148C288.061 11.9 288.285 11.548 288.397 11.092H289.201C289.113 11.388 288.997 11.664 288.853 11.92C288.709 12.168 288.529 12.388 288.313 12.58C288.097 12.764 287.841 12.908 287.545 13.012C287.249 13.116 286.905 13.168 286.513 13.168C286.017 13.168 285.589 13.084 285.229 12.916C284.869 12.748 284.573 12.52 284.341 12.232C284.109 11.936 283.937 11.592 283.825 11.2C283.713 10.8 283.657 10.372 283.657 9.916C283.657 9.46 283.721 9.032 283.849 8.632C283.985 8.232 284.173 7.884 284.413 7.588C284.661 7.284 284.961 7.048 285.313 6.88C285.665 6.704 286.065 6.616 286.513 6.616C287.369 6.616 288.041 6.912 288.529 7.504C289.017 8.088 289.257 8.94 289.249 10.06H284.425ZM292.833 13.024C292.745 13.04 292.629 13.068 292.485 13.108C292.341 13.148 292.181 13.168 292.005 13.168C291.645 13.168 291.369 13.08 291.177 12.904C290.993 12.72 290.901 12.396 290.901 11.932V7.384H290.025V6.784H290.901V5.056H291.621V6.784H292.785V7.384H291.621V11.644C291.621 11.796 291.625 11.928 291.633 12.04C291.641 12.152 291.665 12.244 291.705 12.316C291.745 12.388 291.805 12.44 291.885 12.472C291.973 12.504 292.093 12.52 292.245 12.52C292.341 12.52 292.437 12.512 292.533 12.496C292.637 12.48 292.737 12.46 292.833 12.436V13.024Z" fill="black"/>
<circle cx="253" cy="9" r="6.5" fill="#0D28A6" stroke="#0D28A6"/>
<path d="M252.432 8.08C252.732 8.08 253.005 8.06333 253.252 8.03C253.498 7.99 253.708 7.92 253.882 7.82C254.062 7.71333 254.202 7.57333 254.302 7.4C254.402 7.22667 254.452 7.00333 254.452 6.73C254.452 6.51 254.412 6.32333 254.332 6.17C254.252 6.01 254.142 5.88 254.002 5.78C253.868 5.68 253.708 5.60667 253.522 5.56C253.342 5.51333 253.152 5.49 252.952 5.49C252.725 5.49 252.518 5.52667 252.332 5.6C252.152 5.67333 251.995 5.78 251.862 5.92C251.728 6.05333 251.625 6.21333 251.552 6.4C251.478 6.58 251.442 6.78 251.442 7H250.802C250.802 6.68 250.855 6.39333 250.962 6.14C251.075 5.88 251.248 5.64 251.482 5.42C251.702 5.22 251.948 5.09333 252.222 5.04C252.502 4.98 252.788 4.95 253.082 4.95C253.362 4.95 253.622 4.98667 253.862 5.06C254.108 5.12667 254.322 5.23333 254.502 5.38C254.682 5.52 254.825 5.7 254.932 5.92C255.038 6.14 255.092 6.39667 255.092 6.69C255.092 7.05667 255.008 7.37333 254.842 7.64C254.682 7.90667 254.432 8.11333 254.092 8.26C254.345 8.34 254.552 8.44667 254.712 8.58C254.878 8.70667 255.008 8.85 255.102 9.01C255.195 9.16333 255.258 9.32667 255.292 9.5C255.325 9.67333 255.342 9.84 255.342 10C255.342 10.2933 255.292 10.5667 255.192 10.82C255.092 11.0733 254.945 11.2967 254.752 11.49C254.558 11.6833 254.318 11.84 254.032 11.96C253.752 12.0733 253.432 12.1333 253.072 12.14C252.665 12.14 252.312 12.1033 252.012 12.03C251.712 11.9567 251.462 11.8367 251.262 11.67C251.062 11.4967 250.905 11.2733 250.792 11C250.678 10.72 250.602 10.3733 250.562 9.96H251.202C251.202 10.5 251.362 10.91 251.682 11.19C252.008 11.4633 252.432 11.6 252.952 11.6C253.205 11.6 253.442 11.5567 253.662 11.47C253.882 11.3833 254.068 11.2667 254.222 11.12C254.382 10.9733 254.502 10.8033 254.582 10.61C254.668 10.4167 254.708 10.2167 254.702 10.01C254.688 9.72333 254.622 9.48667 254.502 9.3C254.382 9.10667 254.218 8.95667 254.012 8.85C253.812 8.73667 253.575 8.66333 253.302 8.63C253.028 8.59 252.738 8.58 252.432 8.6V8.08Z" fill="white"/>
</svg>
